<?xml version="1.0" standalone="no"?>
<!DOCTYPE svg PUBLIC "-//W3C//DTD SVG 20010904//EN"
 "http://www.w3.org/TR/2001/REC-SVG-20010904/DTD/svg10.dtd">
<svg version="1.0" xmlns="http://www.w3.org/2000/svg"
 width="472.000000pt" height="654.000000pt" viewBox="0 0 472.000000 654.000000"
 preserveAspectRatio="xMidYMid meet">

<g transform="translate(0.000000,654.000000) scale(0.100000,-0.100000)"
fill="#000000" stroke="none">
<path d="M2120 6529 c-523 -53 -1024 -288 -1404 -658 -139 -137 -219 -232
-327 -396 -185 -276 -311 -608 -366 -956 -25 -160 -25 -519 0 -679 90 -574
367 -1082 789 -1445 443 -381 966 -575 1548 -575 582 0 1105 194 1548 575 422
363 699 871 789 1445 25 160 25 519 0 679 -55 348 -181 680 -366 956 -108 164
-188 259 -327 396 -385 375 -880 605 -1418 658 -125 13 -342 12 -466 0z m534
-394 c853 -129 1523 -797 1660 -1654 88 -543 -76 -1138 -429 -1561 -306 -366
-710 -602 -1183 -692 -170 -32 -514 -32 -684 0 -399 75 -742 251 -1021 521
-187 181 -295 329 -408 556 -304 612 -270 1334 91 1917 155 249 389 483 638
638 235 145 527 250 782 279 52 6 111 13 130 15 66 8 325 -4 424 -19z"/>
<path d="M1130 830 l0 -530 94 0 94 0 4 238 c3 221 5 240 25 278 42 79 162
108 232 57 57 -42 61 -65 61 -331 l0 -243 98 3 97 3 0 275 0 275 -33 67 c-19
39 -49 80 -70 98 -99 82 -298 77 -376 -9 -11 -12 -23 -21 -28 -21 -4 0 -8 83
-8 185 l0 185 -95 0 -95 0 0 -530z"/>
<path d="M479 1067 c-235 -67 -354 -336 -248 -562 30 -64 120 -154 184 -184
204 -95 439 -13 538 189 30 60 32 72 32 170 0 97 -2 110 -32 172 -40 84 -101
146 -186 188 -56 28 -80 33 -154 36 -53 2 -106 -1 -134 -9z m189 -193 c144
-60 172 -265 50 -357 -138 -105 -328 -10 -328 164 0 31 8 71 19 95 42 93 162
139 259 98z"/>
<path d="M2330 1065 c-25 -8 -65 -31 -88 -50 l-42 -37 0 41 0 41 -100 0 -100
0 0 -530 0 -530 100 0 100 0 0 190 0 190 45 -34 c61 -47 107 -61 200 -61 93 1
165 28 233 89 225 204 148 607 -133 691 -60 18 -155 18 -215 0z m163 -188 c51
-22 103 -87 116 -146 29 -138 -65 -260 -202 -261 -123 0 -207 85 -207 210 0
125 81 209 203 210 32 0 72 -6 90 -13z"/>
<path d="M3178 1061 c-75 -24 -118 -52 -172 -112 -68 -76 -90 -142 -91 -270 0
-102 1 -108 38 -181 24 -49 53 -90 79 -113 164 -140 430 -137 577 5 23 22 41
44 41 49 0 5 -34 28 -76 51 -69 38 -77 41 -92 27 -35 -32 -107 -57 -162 -57
-68 0 -125 25 -168 74 -59 67 -65 65 251 68 l282 3 3 65 c9 182 -101 345 -267
394 -71 21 -172 20 -243 -3z m187 -166 c39 -9 91 -49 110 -85 31 -61 34 -60
-175 -60 -104 0 -190 2 -190 5 0 3 9 23 20 44 25 51 72 89 118 96 20 4 42 8
47 10 10 3 14 3 70 -10z"/>
<path d="M4149 1067 c-47 -18 -109 -56 -109 -68 0 -5 -4 -9 -10 -9 -5 0 -10
16 -10 35 l0 35 -95 0 -95 0 0 -380 0 -380 94 0 95 0 3 238 c4 276 10 299 88
340 76 38 158 22 204 -41 20 -27 21 -44 24 -283 l3 -254 95 0 94 0 0 275 c0
247 -2 280 -19 325 -44 115 -124 171 -251 177 -47 2 -89 -2 -111 -10z"/>
</g>
</svg>
